<?xml version="1.0" encoding="UTF-8"?>
<svg id="Layer_1" xmlns="http://www.w3.org/2000/svg" version="1.1" viewBox="0 0 792 763.14">
  <!-- Generator: Adobe Illustrator 29.8.2, SVG Export Plug-In . SVG Version: 2.1.1 Build 3)  -->
  <defs>
    <style>
      .st0 {
        fill: #8b4dac;
        stroke: #231f20;
        stroke-miterlimit: 10;
      }

      .st1 {
        fill: #6900b0;
      }

      .st2 {
        fill: #9b70ff;
      }
    </style>
  </defs>
  <g>
    <ellipse class="st2" cx="159.19" cy="401.69" rx="70.01" ry="65.05"/>
    <rect class="st2" x="96.12" y="480.96" width="126.13" height="231.72" rx="63.07" ry="63.07"/>
  </g>
  <path class="st0" d="M89.18,289.9"/>
  <path class="st1" d="M702.82,120.27c0-34.69-28.38-63.07-63.07-63.07h0c-34.69,0-63.07,28.38-63.07,63.07v363.44L205.57,71.27c-23.2-25.79-63.28-27.9-89.07-4.7h0c-16.12,14.5-22.99,35.6-20.21,55.67-.1,1.47-.18,2.96-.18,4.46v132.64c0,34.69,28.38,63.07,63.07,63.07h0c28.96,0,53.51-19.79,60.83-46.51l372.92,414.45c23.2,25.79,63.28,27.9,89.07,4.7h0c13.84-12.45,20.85-29.77,20.8-47.13,0-.14.01-.28.01-.42V120.27Z"/>
</svg>